<svg width="76" height="75" viewBox="0 0 76 75" fill="none" xmlns="http://www.w3.org/2000/svg">
<g clip-path="url(#clip0_1045_138)">
<path d="M38 75C58.7107 75 75.5 58.2107 75.5 37.5C75.5 16.7893 58.7107 0 38 0C17.2893 0 0.5 16.7893 0.5 37.5C0.5 58.2107 17.2893 75 38 75Z" fill="#FFD2EB"/>
<path d="M31.46 47.96C31.65 47.11 31.83 46.305 32.015 45.495C33.385 39.41 34.755 33.325 36.125 27.235C36.165 27.06 36.18 26.92 36.425 26.925C38.28 26.945 40.135 26.945 41.985 26.965C42.225 26.965 42.465 27.015 42.7 27.07C44.21 27.42 45.015 28.445 44.9 30.035C44.83 31 44.615 31.96 44.41 32.91C43.64 36.42 42.85 39.925 42.055 43.43C41.735 44.85 41.14 46.115 39.915 46.995C38.94 47.695 37.82 47.955 36.65 47.975C35 48.005 33.35 47.985 31.7 47.98C31.64 47.98 31.585 47.965 31.465 47.955L31.46 47.96ZM35.93 44.655C36.255 44.655 36.53 44.655 36.805 44.655C37.765 44.655 38.17 44.35 38.38 43.42C39.175 39.895 39.965 36.365 40.755 32.835C40.87 32.33 40.99 31.83 41.085 31.32C41.19 30.76 40.97 30.365 40.485 30.315C40.035 30.27 39.58 30.305 39.12 30.305C38.055 35.09 36.995 39.845 35.92 44.65L35.93 44.655Z" fill="#FF78B5"/>
<path d="M25.34 48.425C24.605 48.285 23.875 48.215 23.2 47.995C22.05 47.625 21.45 46.72 21.385 45.52C21.325 44.49 21.62 43.52 21.84 42.535C22.69 38.71 23.555 34.885 24.42 31.065C24.79 29.44 25.535 28.045 27.09 27.275C28.72 26.465 30.45 26.38 32.185 26.885C33.52 27.275 34.22 28.27 34.145 29.725C34.1 30.57 33.91 31.415 33.725 32.245C32.85 36.15 31.97 40.055 31.065 43.955C30.63 45.835 29.645 47.31 27.73 47.935C26.965 48.185 26.135 48.265 25.335 48.42L25.34 48.425ZM26.15 44.965C26.205 44.955 26.35 44.945 26.49 44.91C27.155 44.73 27.33 44.19 27.46 43.605C28.295 39.89 29.13 36.175 29.965 32.455C30.09 31.905 30.22 31.35 30.29 30.795C30.35 30.29 30.11 30.04 29.595 29.98C28.78 29.88 28.24 30.285 28.04 31.18C27.385 34.1 26.735 37.02 26.09 39.94C25.79 41.29 25.48 42.635 25.215 43.99C25.085 44.65 25.395 44.96 26.155 44.965H26.15Z" fill="#FF78B5"/>
<path d="M58.395 47.975C58.23 44.955 58.065 41.955 57.9 38.96C57.855 38.95 57.805 38.94 57.76 38.93C57.71 39.055 57.645 39.17 57.615 39.3C57.225 41.035 56.835 42.775 56.45 44.51C56.21 45.59 55.97 46.67 55.715 47.745C55.69 47.845 55.575 47.995 55.5 47.995C54.335 48.01 53.165 48.005 51.97 48.005C52.285 46.61 52.59 45.25 52.895 43.89C54.145 38.34 55.39 32.795 56.635 27.245C56.675 27.07 56.69 26.925 56.93 26.93C58.725 26.95 60.52 26.925 62.31 26.985C63.26 27.015 64.135 27.34 64.7 28.19C65.14 28.855 65.26 29.615 65.135 30.375C64.915 31.715 64.63 33.045 64.34 34.37C64.235 34.85 64.095 35.33 63.905 35.78C63.415 36.935 62.555 37.725 61.385 38.17C61.135 38.265 61.045 38.36 61.085 38.66C61.54 41.755 61.97 44.855 62.415 47.98H58.385L58.395 47.975ZM58.42 35.79C58.8 35.77 59.115 35.78 59.42 35.74C59.99 35.665 60.4 35.33 60.53 34.79C60.83 33.58 61.085 32.355 61.325 31.13C61.42 30.64 61.14 30.32 60.65 30.245C60.485 30.22 60.31 30.245 60.145 30.22C59.73 30.145 59.6 30.345 59.53 30.73C59.33 31.765 59.08 32.795 58.85 33.825C58.71 34.455 58.57 35.085 58.415 35.785L58.42 35.79Z" fill="#FF78B5"/>
<path d="M21.3149 40.785C20.8999 42.305 20.6149 43.815 20.0699 45.225C19.3249 47.165 17.7199 48.09 15.6999 48.27C14.9749 48.335 14.2249 48.32 13.5099 48.215C11.5199 47.925 10.5449 46.625 10.8799 44.64C11.1499 43.03 11.5549 41.44 11.9099 39.845C12.5599 36.925 13.2099 34 13.8749 31.08C14.2549 29.405 15.0399 28 16.6599 27.21C17.8699 26.62 19.1549 26.525 20.4649 26.635C21.1299 26.69 21.7749 26.835 22.3549 27.19C23.2849 27.755 23.6849 28.64 23.5999 29.67C23.5199 30.66 23.2799 31.635 23.0899 32.61C22.9949 33.105 22.8599 33.59 22.7349 34.105H19.0449C19.1849 33.47 19.3249 32.855 19.4599 32.24C19.5549 31.805 19.6699 31.375 19.7299 30.935C19.8249 30.285 19.5499 29.985 18.8999 29.965C18.1949 29.945 17.7299 30.275 17.5449 31.01C17.2899 32.01 17.0749 33.025 16.8499 34.03C16.1349 37.245 15.4199 40.46 14.7099 43.68C14.5499 44.41 14.6599 44.75 15.1049 44.905C15.7299 45.125 16.4849 44.845 16.7149 44.24C16.8999 43.75 16.9949 43.22 17.1149 42.71C17.2449 42.16 17.3549 41.605 17.4949 41.06C17.5199 40.955 17.6549 40.795 17.7399 40.795C18.8949 40.775 20.0499 40.785 21.3149 40.785Z" fill="#FF78B5"/>
<path d="M55.705 26.955C55.705 27.035 55.71 27.07 55.705 27.105C55.465 28.16 55.225 29.215 54.98 30.295C54.075 30.295 53.17 30.295 52.27 30.295C51.595 30.295 50.92 30.285 50.245 30.305C50.14 30.305 49.97 30.415 49.95 30.5C49.55 32.245 49.165 33.995 48.765 35.785H53.06C52.8 36.94 52.555 38.045 52.3 39.175H48.005C47.6 41 47.195 42.8 46.785 44.66H51.78C51.58 45.555 51.4 46.4 51.205 47.24C51.03 48.01 51.025 48.01 50.23 48.01C47.735 48.01 45.245 48.01 42.75 48.01H42.335C42.69 46.42 43.03 44.87 43.375 43.325C44.57 37.975 45.77 32.625 46.965 27.275C47.01 27.075 47.03 26.93 47.31 26.93C50.045 26.94 52.775 26.935 55.51 26.94C55.57 26.94 55.625 26.955 55.7 26.96L55.705 26.955Z" fill="#FF78B5"/>
</g>
<defs>
<clipPath id="clip0_1045_138">
<rect width="75" height="75" fill="white" transform="translate(0.5)"/>
</clipPath>
</defs>
</svg>
