<svg width="21" height="20" viewBox="0 0 21 20" fill="none" xmlns="http://www.w3.org/2000/svg">
<g id="Clip path group">
<mask id="mask0_1062_58" style="mask-type:luminance" maskUnits="userSpaceOnUse" x="0" y="0" width="21" height="20">
<g id="clippath">
<path id="Vector" d="M20.5 0H0.5V20H20.5V0Z" fill="white"/>
</g>
</mask>
<g mask="url(#mask0_1062_58)">
<g id="Group">
<g id="Group_2">
<path id="Vector_2" d="M10.1083 0.841553C10.475 0.841553 10.85 0.841553 11.2167 0.841553C11.4417 0.866553 11.6667 0.891553 11.8917 0.924886C14.2917 1.28322 16.275 2.39989 17.775 4.30822C19.2417 6.17489 19.85 8.30822 19.625 10.6749C19.475 12.2832 18.9083 13.7499 17.9417 15.0416C16.225 17.3166 13.9333 18.5416 11.0917 18.7082C9.50001 18.7999 7.98334 18.4582 6.56668 17.7332C6.45834 17.6749 6.36667 17.6666 6.24167 17.7082C4.75001 18.1832 3.25834 18.6582 1.76667 19.1416C1.59167 19.1999 1.45834 19.1916 1.34167 19.0416C1.34167 18.9832 1.34167 18.9249 1.34167 18.8666C1.36667 18.8166 1.39167 18.7582 1.40834 18.7082C1.88334 17.3082 2.35834 15.9082 2.83334 14.5166C2.88334 14.3749 2.87501 14.2666 2.80001 14.1332C2.23334 13.1499 1.89167 12.0916 1.74167 10.9666C1.53334 9.40822 1.70834 7.87489 2.33334 6.43322C3.62501 3.42489 5.89167 1.61655 9.08334 0.983219C9.41667 0.916553 9.76667 0.883219 10.1083 0.841553ZM4.15834 16.4082C4.24167 16.3832 4.29167 16.3749 4.34167 16.3582C5.02501 16.1416 5.70834 15.9332 6.38334 15.7082C6.55834 15.6499 6.70834 15.6582 6.86667 15.7666C7.75834 16.3332 8.72501 16.6749 9.77501 16.8082C11.0667 16.9749 12.3083 16.7916 13.5 16.2749C14.7083 15.7499 15.7 14.9499 16.475 13.8832C17.2167 12.8499 17.65 11.7082 17.7667 10.4416C17.9167 8.84989 17.5583 7.36655 16.6917 6.02489C15.7083 4.49155 14.325 3.47489 12.575 2.97489C11.2417 2.59989 9.90834 2.61655 8.59167 3.01655C7.30001 3.40822 6.20001 4.10822 5.30834 5.12489C4.29167 6.27489 3.70001 7.61655 3.56667 9.14155C3.41667 10.8332 3.82501 12.3916 4.80001 13.7916C4.91667 13.9582 4.94167 14.1166 4.87501 14.3082C4.63334 14.9916 4.40834 15.6832 4.15834 16.4082Z" fill="white"/>
<path id="Vector_3" d="M13.125 14.0665C12.6084 14.0665 12.1084 13.9165 11.6167 13.7665C9.62505 13.1665 8.21671 11.8331 7.06671 10.1748C6.65838 9.59146 6.30838 8.98312 6.20005 8.27479C6.09171 7.56646 6.20005 6.89979 6.60005 6.29146C6.86671 5.88312 7.25838 5.72479 7.70838 5.64146C7.84171 5.61646 7.98338 5.59979 8.11671 5.58312C8.40005 5.54979 8.62505 5.64979 8.74171 5.89979C9.02505 6.52479 9.29171 7.15812 9.54171 7.79146C9.65005 8.06646 9.50005 8.29146 9.35838 8.50812C9.23338 8.69146 9.06671 8.85812 8.93338 9.03312C8.90005 9.07479 8.88338 9.17479 8.90838 9.20812C9.63338 10.2331 10.5 11.0915 11.675 11.5998C11.8 11.6581 11.875 11.6415 11.9584 11.5248C12.1417 11.2915 12.3334 11.0581 12.5167 10.8248C12.7667 10.5081 12.9667 10.4581 13.3417 10.6248C13.6667 10.7665 13.9917 10.9248 14.3167 11.0748C14.5667 11.1915 14.8167 11.3248 15.0667 11.4498C15.2667 11.5498 15.35 11.6998 15.3584 11.9248C15.425 13.2748 14.3167 13.9581 13.3667 14.0498C13.2917 14.0498 13.2084 14.0581 13.125 14.0665Z" fill="white"/>
</g>
</g>
</g>
</g>
</svg>
