<?xml version="1.0" encoding="utf-8"?>
<!-- Generator: Adobe Illustrator 26.2.1, SVG Export Plug-In . SVG Version: 6.00 Build 0)  -->
<svg version="1.1" id="Camada_1" xmlns="http://www.w3.org/2000/svg" xmlns:xlink="http://www.w3.org/1999/xlink" x="0px" y="0px"
	 viewBox="0 0 512 512" style="enable-background:new 0 0 512 512;" xml:space="preserve">
<style type="text/css">
	.st0{fill-rule:evenodd;clip-rule:evenodd;fill:#FF78B5;}
</style>
<g>
	<path class="st0" d="M282.65,128.8c-5.56-11.12-14.64-17.19-27.03-17.16c-12.39,0.03-21.41,6.14-26.96,17.27
		c-4.48,8.97-8.98,17.94-13.46,26.91c-29.05,58.12-58.13,116.22-87.15,174.35c-7.55,15.12-3.82,32.3,8.97,42.39
		c12.81,10.11,30.24,9.61,43.27-1.35c7.84-6.6,15.59-13.31,23.37-19.98c10.32-8.84,20.62-17.7,31.21-26.78
		c-1.07-0.97-1.84-1.67-2.61-2.36c-9.3-8.33-17.96-17.23-25.05-27.57c-7.51-10.94-12.59-22.61-11.05-36.34
		c2.75-24.48,19.97-44.91,43.47-51.42c23.78-6.58,48.86,1.78,63.7,21.62c12.57,16.81,18.32,40.58,2.75,63.05
		c-4.63,6.68-9.96,12.88-15.13,19.17c-4.19,5.09-8.62,9.97-12.94,14.95c-1.08-0.98-1.03-0.76-0.89-0.64
		c18.66,15.99,37.19,32.14,56.05,47.88c7.79,6.5,17.24,8.37,27.2,6.24c22.31-4.78,33.2-28.3,22.74-49.26
		C349.67,262.75,316.15,195.78,282.65,128.8z"/>
	<path class="st0" d="M288.86,262.58c-1.02-17.64-15.57-31.42-33.3-31.73c-3.07,0.54-6.23,0.79-9.2,1.69
		c-10.81,3.28-18.05,10.4-22.08,20.95c-3.82,10-1.34,18.84,5.24,26.52c6.85,7.99,14.14,15.62,21.56,23.09
		c4.32,4.35,4.68,4.16,9.29-0.01c9.39-8.5,18.44-17.33,24.94-28.38C287.51,270.99,289.12,267.09,288.86,262.58z"/>
	<path class="st0" d="M256,0C114.62,0,0,114.62,0,256s114.62,256,256,256s256-114.62,256-256S397.38,0,256,0z M376.83,401.56
		c-22.71,9.2-43.97,5.66-62.78-10.03c-19.03-15.87-37.68-32.2-56.5-48.32c-0.55-0.47-1.12-0.92-1.89-1.55
		c-6.05,5.17-12.07,10.31-18.09,15.47c-13.26,11.36-26.44,22.82-39.8,34.07c-17.83,15-38.08,19.36-60.07,11.55
		c-22.14-7.87-35.08-24.21-39.32-47.22c-2.3-12.49-0.37-24.6,5.3-35.99c17.88-35.89,35.84-71.75,53.76-107.62
		c15.59-31.2,31.25-62.36,46.76-93.6c9.28-18.69,23.86-29.96,44.68-32.86c0.39-0.05,0.76-0.3,1.14-0.45c3.77,0,7.53,0,11.3,0
		c4.64,1.16,9.42,1.93,13.88,3.56c14.33,5.22,24.57,15.05,31.35,28.66c12.43,24.96,24.94,49.88,37.41,74.82
		c21.06,42.13,42.18,84.23,63.16,126.41C422.95,350.24,409.16,388.46,376.83,401.56z"/>
</g>
</svg>
