<?xml version="1.0" encoding="utf-8"?>
<!-- Generator: Adobe Illustrator 26.2.1, SVG Export Plug-In . SVG Version: 6.00 Build 0)  -->
<svg version="1.1" id="Camada_1" xmlns="http://www.w3.org/2000/svg" xmlns:xlink="http://www.w3.org/1999/xlink" x="0px" y="0px"
	 viewBox="0 0 512 512" style="enable-background:new 0 0 512 512;" xml:space="preserve">
<style type="text/css">
	.st0{fill:#FF78B5;}
</style>
<g>
	<path class="st0" d="M256,0C114.62,0,0,114.62,0,256c0,5.34,0.18,10.64,0.51,15.9c0,0.07,0,0.14,0,0.21
		c0.01,0.06,0.02,0.13,0.03,0.19c8.02,127.61,109.52,229.85,236.82,239.01c0.9,0.11,1.79,0.21,2.69,0.32c0.81,0,1.62,0,2.43,0
		c4.48,0.23,9,0.36,13.54,0.36s9.05-0.12,13.54-0.36c0.81,0,1.63,0,2.44,0c0.74-0.1,1.47-0.2,2.21-0.29
		C407.08,502.02,512,391.27,512,256C512,114.62,397.38,0,256,0z M255.65,372.25c-42.9,0-85.81-0.47-128.71,0.2
		c-22.17,0.35-36.01-16.12-35.8-35.72c0.58-53.87,0.19-107.75,0.2-161.63c0-21.9,13.13-35.04,35.05-35.05
		c86.47-0.02,172.94-0.02,259.41,0c21.62,0.01,34.84,13.21,34.85,34.76c0.02,54.21,0.02,108.42,0,162.63
		c-0.01,21.57-13.21,34.79-34.8,34.81C342.46,372.27,299.05,372.25,255.65,372.25z"/>
	<path class="st0" d="M394.2,335.98c0.01-49.89,0-99.78,0-149.68c0-1.74,0-3.48,0-6.44c-3.18,2.5-5.36,4.2-7.52,5.92
		c-40.23,31.94-80.46,63.9-120.7,95.83c-7.2,5.71-12.71,5.73-19.76,0.14c-27.87-22.12-55.72-44.25-83.58-66.38
		c-14.55-11.56-29.11-23.1-44.84-35.58c0,2.95,0,4.58,0,6.21c0,50.06,0,100.12,0,150.18c0,8.59,1.18,9.75,9.82,9.75
		c85.48,0,170.96,0,256.45,0C393.09,345.93,394.2,344.85,394.2,335.98z"/>
	<path class="st0" d="M146.81,169.11c35.3,28,70.63,55.97,105.82,84.11c2.94,2.35,4.59,1.71,7.14-0.32
		c27.41-21.89,54.91-43.68,82.39-65.49c8.4-6.67,16.79-13.36,26.08-20.75c-75.39,0-149.3,0-223.22,0
		C145.16,168.12,146.06,168.52,146.81,169.11z"/>
</g>
</svg>
