<?xml version="1.0" encoding="utf-8"?>
<!-- Generator: Adobe Illustrator 26.2.1, SVG Export Plug-In . SVG Version: 6.00 Build 0)  -->
<svg version="1.1" id="Camada_1" xmlns="http://www.w3.org/2000/svg" xmlns:xlink="http://www.w3.org/1999/xlink" x="0px" y="0px"
	 viewBox="0 0 512 512" style="enable-background:new 0 0 512 512;" xml:space="preserve">
<style type="text/css">
	.st0{fill:#FF78B5;}
</style>
<path class="st0" d="M256,1.55c-141.39,0-256,114.61-256,256c0,127.76,93.58,233.68,215.95,252.88V331.55h-64.97v0h-0.04v-73.99
	h65.01v-56.4c0-64.17,38.23-99.59,96.71-99.59c0.01,0,0.02,0,0.04,0c0,0,0,0,0,0c28.03,0,57.31,5.01,57.31,5.01v62.99h-32.27
	c-31.78,0-41.72,19.72-41.72,39.97v48.01h70.96l0,0h0.04l-11.34,73.99h-59.66v178.9C418.4,491.22,512,385.33,512,257.55
	C512,116.17,397.39,1.55,256,1.55z"/>
</svg>
