<?xml version="1.0" encoding="utf-8"?>
<!-- Generator: Adobe Illustrator 26.2.1, SVG Export Plug-In . SVG Version: 6.00 Build 0)  -->
<svg version="1.1" id="Camada_1" xmlns="http://www.w3.org/2000/svg" xmlns:xlink="http://www.w3.org/1999/xlink" x="0px" y="0px"
	 viewBox="0 0 512 512" style="enable-background:new 0 0 512 512;" xml:space="preserve">
<style type="text/css">
	.st0{fill:#FF78B5;}
</style>
<path class="st0" d="M192.7,490.81c0.02-5.17-0.16-10.33-0.18-15.5c-0.03-9.79-0.01-19.59-0.01-28.2c-12.89,0-24.98,0.43-37.03-0.11
	c-13.89-0.62-26.87-4.27-37.63-13.91c-6.85-6.13-10.11-14.26-13.74-22.31c-6.17-13.67-13.79-26.18-27.41-34
	c-2.9-1.67-5.1-4.72-7.29-7.4c-2.59-3.17-1.71-6.11,2.34-6.37c5.36-0.34,11.1-0.63,16.13,0.87c13.98,4.17,24.34,13.33,31.72,25.89
	c4.79,8.16,10.85,15.15,18.98,20.18c15.31,9.47,31.25,6.68,47.33,2.52c5.29-1.37,8.3-4.06,8.55-9.8c0.11-2.42,0.95-4.97,2.07-7.14
	c3.53-6.85,7.36-13.56,11.1-20.38c-0.08-0.01-0.85-0.11-1.6-0.28c-14.73-3.34-29.91-5.38-44.08-10.33
	c-23.59-8.24-43-22.52-54.46-45.71c-8.29-16.79-12.59-34.63-14.18-53.22c-2.62-30.66,2.42-59.1,23.53-83.06
	c1.03-1.17,1.56-3.71,1.05-5.16c-6.44-18.36-5.41-36.65-0.01-54.99c3.32-11.28,5.19-12.48,16.81-10.29
	c0.49,0.09,0.97,0.25,1.45,0.38c18.5,4.9,35.65,12.83,51.56,23.42c2.83,1.88,5.41,2.49,8.83,1.61
	c39.67-10.16,79.36-10.07,119.11-0.17c2.51,0.62,5.83-0.2,8.25-1.4c12.65-6.25,24.98-13.19,37.74-19.2
	c7.97-3.75,16.53-6.33,25.61-4.93c1.36,0.21,3.24,1.31,3.69,2.46c7.65,19.75,10.53,39.92,3.82,60.52c-1.29,3.97-1.07,6.5,1.71,9.69
	c10.47,12.03,17.19,26.03,20.49,41.65c3.27,15.52,2.75,31.17,0.92,46.75c-2.36,20.06-7.72,39.3-19.42,56.05
	c-15.93,22.8-39.28,34.34-65.4,40.96c-9.72,2.46-19.73,3.8-29.06,5.55c3.35,5.41,7.23,10.63,10,16.38
	c5.04,10.43,5.68,21.83,5.72,33.2c0.07,22.17-0.05,44.33,0.06,66.5c0.02,5,1.5,8.88,4.06,11.35C432.29,473.17,512,373.9,512,256
	C512,114.62,397.38,0,256,0S0,114.62,0,256c0,117.91,79.73,217.2,188.22,246.91C191.04,500.35,192.67,496.22,192.7,490.81z"/>
</svg>
