<?xml version="1.0" encoding="utf-8"?>
<!-- Generator: Adobe Illustrator 26.2.1, SVG Export Plug-In . SVG Version: 6.00 Build 0)  -->
<svg version="1.1" id="Camada_1" xmlns="http://www.w3.org/2000/svg" xmlns:xlink="http://www.w3.org/1999/xlink" x="0px" y="0px"
	 viewBox="0 0 512 512" style="enable-background:new 0 0 512 512;" xml:space="preserve">
<style type="text/css">
	.st0{fill:#FF78B5;}
</style>
<g>
	
		<ellipse transform="matrix(0.0985 -0.9951 0.9951 0.0985 -23.9419 485.4942)" class="st0" cx="256" cy="255.96" rx="53.74" ry="53.74"/>
	<path class="st0" d="M381.65,160.92c-2.92-7.55-6.41-12.89-12.06-18.55s-11.04-9.14-18.55-12.06c-5.69-2.2-14.22-4.82-29.92-5.54
		c-16.99-0.8-22.07-0.95-65.12-0.95c-43.05,0-48.13,0.19-65.12,0.95c-15.7,0.72-24.23,3.34-29.92,5.54
		c-7.55,2.92-12.89,6.41-18.55,12.06c-5.65,5.65-9.14,11.04-12.06,18.55c-2.2,5.69-4.82,14.22-5.54,29.92
		c-0.8,16.99-0.95,22.07-0.95,65.12c0,43.01,0.19,48.13,0.95,65.12c0.72,15.7,3.34,24.23,5.54,29.92
		c2.92,7.55,6.41,12.89,12.06,18.55c5.65,5.65,11.04,9.14,18.55,12.06c5.69,2.2,14.22,4.82,29.92,5.54
		c16.99,0.8,22.07,0.95,65.12,0.95c43.05,0,48.13-0.19,65.12-0.95c15.7-0.72,24.23-3.34,29.92-5.54c7.55-2.92,12.9-6.41,18.55-12.06
		c5.65-5.65,9.14-11.04,12.06-18.55c2.2-5.69,4.82-14.22,5.54-29.92c0.8-16.99,0.95-22.07,0.95-65.12c0-43.01-0.19-48.13-0.95-65.12
		C386.47,175.14,383.85,166.61,381.65,160.92z M256,338.72c-45.7,0-82.75-37.05-82.75-82.75c0-45.7,37.05-82.75,82.75-82.75
		s82.75,37.05,82.75,82.75C338.75,301.66,301.7,338.72,256,338.72z M342.05,189.29c-10.68,0-19.34-8.66-19.34-19.34
		c0-10.68,8.66-19.34,19.34-19.34c10.68,0,19.34,8.66,19.34,19.34C361.4,180.63,352.74,189.29,342.05,189.29z"/>
	<path class="st0" d="M256,0C114.62,0,0,114.62,0,256s114.62,256,256,256s256-114.62,256-256S397.38,0,256,0z M416.24,322.48
		c-0.8,17.18-3.53,28.9-7.51,39.14c-4.1,10.62-9.63,19.61-18.58,28.56c-8.99,8.95-17.98,14.45-28.56,18.58
		c-10.28,4.02-22,6.71-39.14,7.51c-17.18,0.8-22.68,0.99-66.45,0.99c-43.77,0-49.27-0.19-66.45-0.99
		c-17.18-0.8-28.9-3.53-39.14-7.51c-10.62-4.1-19.61-9.63-28.56-18.58c-8.95-8.99-14.45-17.98-18.58-28.56
		c-4.02-10.28-6.71-22-7.51-39.14c-0.8-17.18-0.99-22.68-0.99-66.45c0-43.77,0.19-49.27,0.99-66.45c0.8-17.18,3.53-28.9,7.51-39.14
		c4.1-10.62,9.63-19.61,18.58-28.56c8.99-8.95,17.98-14.45,28.56-18.58c10.28-4.02,22-6.71,39.14-7.51
		c17.18-0.8,22.68-0.99,66.45-0.99c43.77,0,49.27,0.15,66.45,0.99c17.18,0.8,28.9,3.53,39.14,7.51c10.62,4.1,19.61,9.63,28.56,18.58
		c8.95,8.99,14.45,17.98,18.58,28.56c4.02,10.28,6.71,22,7.51,39.14c0.8,17.18,0.99,22.68,0.99,66.45S417.03,305.3,416.24,322.48z"
		/>
</g>
</svg>
