<?xml version="1.0" encoding="utf-8"?>
<!-- Generator: Adobe Illustrator 26.2.1, SVG Export Plug-In . SVG Version: 6.00 Build 0)  -->
<svg version="1.1" id="Camada_1" xmlns="http://www.w3.org/2000/svg" xmlns:xlink="http://www.w3.org/1999/xlink" x="0px" y="0px"
	 viewBox="0 0 512 512" style="enable-background:new 0 0 512 512;" xml:space="preserve">
<style type="text/css">
	.st0{fill-rule:evenodd;clip-rule:evenodd;fill:#FF78B5;}
</style>
<g>
	<path class="st0" d="M234.97,125.16c-21.85-0.9-40.75,19.74-42.06,45.87c-1.17,26.2,15.26,47.96,37.94,48.93
		c21.85,0.9,41.51-19.94,42.82-46.07C274.84,147.67,257.65,126.13,234.97,125.16z"/>
	<path class="st0" d="M187.17,312.78c-3.63-1.28-11.12-3.72-26.39-6.61c-12.81-2.37-18.25-2.27-22.26-2.47
		c-4.01-0.2-5.51,2.39-5.95,5.54c-0.41,3-1.32,12.48-1.32,30.19c0,23.33,1.68,35.39,1.49,35.31c0.62,3.82,2.23,7.51,6.64,9.85
		c0,0,8.02,4.29,19.75,7.5c11.83,3.29,23.5,5.46,28.14,5.68c4.64,0.21,6.98-2.44,7.45-7.14c0.51-5.08,1.63-20.78,1.6-36.63
		c0.03-19.58-1.74-32.5-1.74-32.5C193.91,316.6,190.45,313.98,187.17,312.78z"/>
	<path class="st0" d="M256,0C114.62,0,0,114.62,0,256s114.62,256,256,256s256-114.62,256-256S397.38,0,256,0z M189.64,426.75
		c-7.02-1.11-22.01-5.34-31.37-8.23c-13.88-4.28-27.57-10.08-28.85-10.72c-5.04-2.54-16-9.23-17.73-23.51
		c-1.13-9.35-2.07-24.66-2.07-46.74c0-18.71,1.16-32.15,1.64-37.23c0.2-2.12,0.91-23.14,20.61-23.14c0,0,5.8-0.42,28.02,3.31
		c22.22,3.73,37.15,7.41,37.15,7.41c6.57,1.39,11.97,4.35,16.52,9.12l39.57,38.81c2.15,2.07,3.27,4.68,3.27,7.48V359
		c0,3.87-0.7,4.89-2.44,7.42l-42.04,54.53C205.52,429.45,191.95,427.12,189.64,426.75z M391.79,367.96
		c0,14.86-15.64,19.03-15.64,19.03l-86.74,19.92c-7.98,1.22-15.08,1.29-22.73-1.23l-20.15-7.82l20.03-27.22
		c2.12-2.88,2.45-6.08,2.45-9.9v-21.46c0-5.97-2.42-9.96-6.6-14.06l-37.34-38.1c-0.69-0.63-1.2-1.14-2.45-2.39
		c0,0,0.58-3.08,3.34-6.76c3.57-4.77,9.84-5.72,9.84-5.72l94.56-8.86c5.98-0.34,11.98-0.22,17.95,0.39l29.24,3.07
		c0,0,14.18,0.91,14.24,15.6v13.31c0,1.53-1.27,2.93-2.86,3.23l-60.98,11.76c0,0-10.33,1.44-10.33,15.7v32.67
		c0,14.11,13.2,10.69,13.18,10.75l19.64-4.22c1.88-0.43,3.22-1.6,3.3-3.31v-8.26c-0.04-1.23-0.73-1.89-1.63-1.64l-17.35,4.05
		c-1.58,0.36-3.36-0.88-3.36-2.41v-25.61c0-1.99,1.29-3.76,3.36-4.18l55.39-10.89c1.06-0.22,1.66,0.66,1.66,1.68V367.96z
		 M343.82,250.63c0.35,0.01-121.96,8.23-124.52,8.26c-44.39,0.13-80.66-39.13-80.82-87.45c-0.15-47.84,35.93-86.64,80.82-86.76
		c37.61-0.1,69.02,27.63,77.52,65.28c11.06-14.81,28.16-24.79,47-24.79c32.28,0,58.51,28.36,58.55,63.62
		C402.55,223.24,379.07,247.59,343.82,250.63z"/>
	<path class="st0" d="M355.05,155.04c-15.04-0.57-27.79,13.55-28.71,31.42c-0.76,17.34,10.46,31.96,24.8,32.71
		c15.01,0.48,27.95-13.11,28.87-31.02C380.77,170.85,369.35,155.68,355.05,155.04z"/>
</g>
</svg>
