<?xml version="1.0" encoding="utf-8"?>
<!-- Generator: Adobe Illustrator 26.2.1, SVG Export Plug-In . SVG Version: 6.00 Build 0)  -->
<svg version="1.1" id="Camada_1" xmlns="http://www.w3.org/2000/svg" xmlns:xlink="http://www.w3.org/1999/xlink" x="0px" y="0px"
	 viewBox="0 0 512 512" style="enable-background:new 0 0 512 512;" xml:space="preserve">
<style type="text/css">
	.st0{fill:#FF78B5;}
</style>
<path class="st0" d="M256,0C114.62,0,0,114.62,0,256s114.62,256,256,256s256-114.62,256-256S397.38,0,256,0z M171.54,395.87
	c-18.2-0.19-36.41-0.15-54.65-0.04c-2.92,0.04-3.79-0.72-3.79-3.72c0.08-64.89,0.08-129.78,0-194.71c0-2.69,0.64-3.64,3.49-3.64
	c18.47,0.11,36.94,0.15,55.41-0.04c3.57-0.04,4.02,1.33,4.02,4.4c-0.04,32.39,0,64.7,0,97.01c0,32.05-0.04,64.09,0.08,96.14
	C176.09,394.85,175.22,395.91,171.54,395.87z M144.61,166.04c-19.84,0-36.3-16.38-36.37-36.22c-0.08-20.02,16.38-36.52,36.45-36.52
	c19.91,0.04,36.33,16.38,36.33,36.22C181.06,149.66,164.71,166.04,144.61,166.04z M411.65,391.74c0,3.3-0.91,4.17-4.17,4.17
	c-18.2-0.15-36.45-0.15-54.65,0c-3.22,0.04-3.91-0.95-3.91-3.98c0.11-33.64,0.11-67.28,0-100.96c-0.04-8.42-0.57-16.88-2.92-25.07
	c-4.36-15.09-15.17-22.79-30.99-21.96c-21.62,1.14-32.84,11.83-35.61,33.79c-0.64,5.23-0.99,10.51-0.95,15.78
	c0.04,32.73-0.04,65.46,0.08,98.19c0,3.26-0.8,4.21-4.13,4.21c-18.36-0.15-36.71-0.15-55.07,0c-2.96,0.04-3.79-0.76-3.79-3.75
	c0.08-64.78,0.08-129.59,0-194.37c0-3.22,1.06-3.94,4.1-3.94c17.41,0.11,34.85,0.15,52.26,0c3.22-0.04,4.02,1.02,3.98,4.06
	c-0.15,7.7-0.04,15.44-0.04,23.21c4.21-4.74,7.66-9.52,11.98-13.58c13.27-12.52,28.98-18.81,47.33-18.66
	c10.09,0.08,20.03,0.8,29.73,3.6c22.22,6.41,35.12,21.73,41.3,43.43c4.63,16.27,5.46,33,5.5,49.76
	C411.76,321.01,411.57,356.39,411.65,391.74z"/>
</svg>
