<?xml version="1.0" encoding="utf-8"?>
<!-- Generator: Adobe Illustrator 26.2.1, SVG Export Plug-In . SVG Version: 6.00 Build 0)  -->
<svg version="1.1" id="Camada_1" xmlns="http://www.w3.org/2000/svg" xmlns:xlink="http://www.w3.org/1999/xlink" x="0px" y="0px"
	 viewBox="0 0 512 512" style="enable-background:new 0 0 512 512;" xml:space="preserve">
<style type="text/css">
	.st0{fill:#FF78B5;}
</style>
<path class="st0" d="M256,0C114.62,0,0,114.62,0,256s114.62,256,256,256s256-114.62,256-256S397.38,0,256,0z M396.74,226.72
	c-9.56,0-18.92-1.29-28.22-3.41c-15.97-3.64-30.72-10.13-44.37-19.11c-0.72-0.49-1.48-1.48-2.24-1.14
	c-0.95,0.46-0.46,1.71-0.46,2.58c-0.04,36.75,0.15,73.46-0.08,110.17c-0.15,25.68-8.31,48.62-25.11,68.19
	c-17.83,20.78-40.51,32.84-67.74,36.18c-20.97,2.54-40.88-1.25-59.77-10.58c-3.07-1.48-5.99-3.26-8.72-5.31
	c-0.87-0.76-1.71-1.52-2.58-2.28c-2.05-0.87-3.72-2.35-5.42-3.72c-16.88-13.39-28.75-30.23-35.31-50.78
	c-2.28-7.17-3.72-14.49-4.4-21.96c-0.53-5.42-0.57-10.85-0.23-16.23c0.83-12.44,3.75-24.39,8.91-35.76
	c5.35-11.91,12.67-22.45,22-31.59c10.85-10.62,23.4-18.58,37.74-23.74c8.99-3.22,18.24-5.2,27.76-5.88
	c6.9-0.53,13.77-0.34,20.63,0.46c0.91,0.11,1.48,0.3,1.44,1.4c-0.08,3.79-0.08,7.62-0.11,11.42c0.08,0.08,0.57,28.98,0.57,42.21
	c0,0.46,0,0.95-0.04,1.4c-0.08,1.33-0.76,1.74-2.01,1.4c-3.6-1.02-7.32-1.52-11.07-1.71c-5.8-0.34-11.53,0.49-16.95,2.5
	c-18.2,6.71-29.24,19.76-31.55,38.95c-2.28,18.93,5.2,34.06,20.94,44.94c1.33,0.91,2.69,1.78,3.91,2.81
	c0.27,0.27,0.57,0.53,0.87,0.8c3.64,1.44,7.28,2.92,11.19,3.68c12.36,2.47,24.01,0.57,34.7-6.03c12.36-7.62,19.65-18.81,22.22-33.07
	c0.49-2.69,0.57-5.46,0.57-8.19c0-73.73,0-147.46,0-221.18c0-3.41-0.46-3,2.96-3c16.99,0,34.02,0,51.01,0c0.42,0,0.8,0,1.21,0
	c1.71,0,1.74,0.04,1.74,1.78c0,3.94,1.63,13.2,1.78,13.92c7.36,37.28,50.82,60.07,64.21,62.08c3.68,0.57,7.4,1.02,11.15,0.99
	c1.55-0.04,1.59,0.04,1.59,1.52c0,3.45,0.68,39.1,0.68,52.15C400.16,226.57,399.74,226.72,396.74,226.72z"/>
</svg>
