<?xml version="1.0" encoding="utf-8"?>
<!-- Generator: Adobe Illustrator 26.2.1, SVG Export Plug-In . SVG Version: 6.00 Build 0)  -->
<svg version="1.1" id="Camada_1" xmlns="http://www.w3.org/2000/svg" xmlns:xlink="http://www.w3.org/1999/xlink" x="0px" y="0px"
	 viewBox="0 0 512 512" style="enable-background:new 0 0 512 512;" xml:space="preserve">
<style type="text/css">
	.st0{fill-rule:evenodd;clip-rule:evenodd;fill:#FF78B5;}
</style>
<path class="st0" d="M256,0C114.62,0,0,114.62,0,256s114.62,256,256,256c141.38,0,256-114.62,256-256S397.38,0,256,0z M397.5,201.2
	c0.11,2.92,0.19,5.84,0.19,8.8c0,89.85-68.38,193.42-193.42,193.42c-38.38,0-74.11-11.26-104.18-30.53
	c5.35,0.64,10.73,0.95,16.23,0.95c31.86,0,61.14-10.85,84.42-29.09c-29.73-0.57-54.84-20.21-63.49-47.22
	c4.13,0.8,8.42,1.21,12.78,1.21c6.18,0,12.17-0.83,17.9-2.39c-31.1-6.22-54.54-33.72-54.54-66.64c0-0.3,0-0.61,0-0.87
	c9.18,5.08,19.65,8.15,30.8,8.5c-18.28-12.17-30.26-33-30.26-56.59c0-12.44,3.38-24.12,9.22-34.17
	c33.49,41.15,83.59,68.19,140.1,71.04c-1.14-5.01-1.74-10.16-1.74-15.51c0-37.51,30.45-67.96,68-67.96
	c19.53,0,37.21,8.27,49.61,21.47c15.47-3.03,30.04-8.72,43.16-16.5c-5.08,15.85-15.85,29.17-29.89,37.58
	c13.73-1.63,26.85-5.27,39.03-10.7C422.31,179.62,410.78,191.6,397.5,201.2z"/>
</svg>
