<?xml version="1.0" encoding="utf-8"?>
<!-- Generator: Adobe Illustrator 26.2.1, SVG Export Plug-In . SVG Version: 6.00 Build 0)  -->
<svg version="1.1" id="Camada_1" xmlns="http://www.w3.org/2000/svg" xmlns:xlink="http://www.w3.org/1999/xlink" x="0px" y="0px"
	 viewBox="0 0 512 512" style="enable-background:new 0 0 512 512;" xml:space="preserve">
<style type="text/css">
	.st0{fill:#FF78B5;}
</style>
<g>
	<path class="st0" d="M264.38,115.79c-74.49,0-135.02,60.53-135.05,134.94c0,25.49,7.13,50.33,20.63,71.79l3.22,5.12l-13.65,49.8
		l51.09-13.39l4.93,2.92c20.71,12.29,44.45,18.81,68.68,18.81h0.04c74.41,0,134.98-60.53,135.02-134.98
		c0.04-36.07-13.99-69.94-39.48-95.46C334.32,129.86,300.45,115.79,264.38,115.79z M343.76,308.72
		c-3.38,9.48-19.57,18.13-27.38,19.3c-6.98,1.06-15.85,1.48-25.56-1.59c-5.88-1.86-13.46-4.36-23.13-8.53
		c-40.73-17.56-67.28-58.56-69.33-61.25s-16.57-22-16.57-41.95c0-19.95,10.47-29.77,14.18-33.83s8.12-5.08,10.81-5.08
		c2.69,0,5.42,0.04,7.77,0.15c2.5,0.15,5.84-0.95,9.14,6.98c3.38,8.12,11.49,28.07,12.52,30.11c1.02,2.01,1.71,4.4,0.34,7.09
		c-1.37,2.69-2.05,4.4-4.06,6.75c-2.01,2.35-4.25,5.27-6.07,7.09c-2.05,2.01-4.13,4.21-1.78,8.27s10.51,17.33,22.57,28.1
		c15.47,13.84,28.56,18.09,32.62,20.14c4.06,2.01,6.45,1.67,8.8-1.02c2.39-2.69,10.16-11.83,12.86-15.89
		c2.73-4.1,5.42-3.41,9.14-2.05c3.72,1.37,23.67,11.15,27.72,13.2s6.75,3.03,7.77,4.7C347.14,291.12,347.14,299.24,343.76,308.72z"
		/>
	<path class="st0" d="M256,0C114.62,0,0,114.62,0,256s114.62,256,256,256s256-114.62,256-256S397.38,0,256,0z M264.34,413.2h-0.08
		c-27.16,0-53.89-6.83-77.6-19.76l-86.09,22.57l23.02-84.12c-14.22-24.61-21.69-52.57-21.69-81.16
		c0.04-89.51,72.89-162.32,162.4-162.32c43.42,0,84.23,16.91,114.88,47.6c30.64,30.68,47.52,71.45,47.56,114.84
		C426.7,340.38,353.85,413.2,264.34,413.2z"/>
</g>
</svg>
